<svg width="1920" height="1080" viewBox="0 0 1920 1080" xmlns="http://www.w3.org/2000/svg">
  <defs>
    <linearGradient id="bg" x1="0" y1="0" x2="1" y2="1">
      <stop offset="0%" stop-color="#0F2A3D"/>
      <stop offset="100%" stop-color="#112032"/>
    </linearGradient>
    <linearGradient id="waveA" x1="0" y1="0" x2="1" y2="0">
      <stop offset="0%" stop-color="#4EC4D8" stop-opacity="0.7"/>
      <stop offset="100%" stop-color="#3A7BC5" stop-opacity="0.46"/>
    </linearGradient>
    <linearGradient id="waveB" x1="0" y1="0" x2="1" y2="0">
      <stop offset="0%" stop-color="#7AE3C8" stop-opacity="0.52"/>
      <stop offset="100%" stop-color="#4EA6DE" stop-opacity="0.36"/>
    </linearGradient>
  </defs>
  <rect width="1920" height="1080" fill="url(#bg)"/>
  <path d="M0 700C220 620 380 760 620 700C860 640 1020 470 1260 520C1510 570 1690 740 1920 680V1080H0Z" fill="url(#waveA)"/>
  <path d="M0 780C240 700 410 860 640 810C890 750 1080 580 1310 620C1550 670 1710 830 1920 790V1080H0Z" fill="url(#waveB)"/>
  <path d="M0 870C220 820 390 930 620 900C860 860 1030 760 1260 790C1510 830 1700 930 1920 910V1080H0Z" fill="#0C1627" fill-opacity="0.75"/>
</svg>
