<svg width="1920" height="1080" viewBox="0 0 1920 1080" xmlns="http://www.w3.org/2000/svg">
  <defs>
    <linearGradient id="sky" x1="0" y1="0" x2="1" y2="1">
      <stop offset="0%" stop-color="#4F78C8"/>
      <stop offset="45%" stop-color="#274A7A"/>
      <stop offset="100%" stop-color="#0C1A32"/>
    </linearGradient>
    <radialGradient id="sun" cx="0.18" cy="0.15" r="0.38">
      <stop offset="0%" stop-color="#F3DFAF" stop-opacity="0.95"/>
      <stop offset="100%" stop-color="#F3DFAF" stop-opacity="0"/>
    </radialGradient>
  </defs>
  <rect width="1920" height="1080" fill="url(#sky)"/>
  <rect width="1920" height="1080" fill="url(#sun)"/>
  <path d="M0 790 L370 420 L610 705 L820 500 L1070 760 L1320 465 L1540 700 L1920 430 L1920 1080 L0 1080 Z" fill="#1C2A45"/>
  <path d="M0 845 L350 540 L560 780 L790 590 L1010 825 L1270 555 L1490 795 L1920 565 L1920 1080 L0 1080 Z" fill="#101E34"/>
  <path d="M0 910 L300 660 L520 855 L770 680 L980 895 L1240 675 L1460 875 L1920 700 L1920 1080 L0 1080 Z" fill="#0A1528"/>
</svg>
