<svg width="1920" height="1080" viewBox="0 0 1920 1080" xmlns="http://www.w3.org/2000/svg">
  <defs>
    <linearGradient id="bg" x1="0" y1="0" x2="0" y2="1">
      <stop offset="0%" stop-color="#1B2740"/>
      <stop offset="55%" stop-color="#111A2D"/>
      <stop offset="100%" stop-color="#090F1B"/>
    </linearGradient>
    <linearGradient id="glow" x1="0" y1="0" x2="1" y2="1">
      <stop offset="0%" stop-color="#41C7F5" stop-opacity="0.28"/>
      <stop offset="100%" stop-color="#A974FF" stop-opacity="0.2"/>
    </linearGradient>
  </defs>
  <rect width="1920" height="1080" fill="url(#bg)"/>
  <rect width="1920" height="1080" fill="url(#glow)"/>
  <g fill="#0E1728">
    <rect x="80" y="440" width="170" height="520"/>
    <rect x="280" y="360" width="220" height="600"/>
    <rect x="540" y="300" width="210" height="660"/>
    <rect x="790" y="410" width="150" height="550"/>
    <rect x="980" y="260" width="260" height="700"/>
    <rect x="1270" y="330" width="180" height="630"/>
    <rect x="1480" y="390" width="200" height="570"/>
    <rect x="1710" y="460" width="140" height="500"/>
  </g>
  <g fill="#69D6F8" fill-opacity="0.42">
    <rect x="315" y="420" width="18" height="24"/>
    <rect x="350" y="460" width="18" height="24"/>
    <rect x="1030" y="360" width="16" height="22"/>
    <rect x="1090" y="390" width="16" height="22"/>
    <rect x="1310" y="430" width="16" height="24"/>
    <rect x="1520" y="500" width="16" height="24"/>
    <rect x="1750" y="540" width="14" height="22"/>
  </g>
  <rect x="0" y="930" width="1920" height="150" fill="#080D17"/>
</svg>
